<?xml version="1.0" encoding="UTF-8" standalone="no"?>
<!-- Created with sK1/UniConvertor (http://sk1project.org/) -->

<svg
   xmlns:dc="http://purl.org/dc/elements/1.1/"
   xmlns:cc="http://creativecommons.org/ns#"
   xmlns:rdf="http://www.w3.org/1999/02/22-rdf-syntax-ns#"
   xmlns:svg="http://www.w3.org/2000/svg"
   xmlns="http://www.w3.org/2000/svg"
   xmlns:sodipodi="http://sodipodi.sourceforge.net/DTD/sodipodi-0.dtd"
   xmlns:inkscape="http://www.inkscape.org/namespaces/inkscape"
   width="595.276pt"
   height="841.89pt"
   viewBox="0 0 595.276 841.89"
   fill-rule="evenodd"
   id="svg3004"
   version="1.1"
   inkscape:version="0.48.3.1 r9886"
   sodipodi:docname="nHyb-logo2.ai">
  <metadata
     id="metadata3068">
    <rdf:RDF>
      <cc:Work
         rdf:about="">
        <dc:format>image/svg+xml</dc:format>
        <dc:type
           rdf:resource="http://purl.org/dc/dcmitype/StillImage" />
        <dc:title></dc:title>
      </cc:Work>
    </rdf:RDF>
  </metadata>
  <sodipodi:namedview
     pagecolor="#ffffff"
     bordercolor="#666666"
     borderopacity="1"
     objecttolerance="10"
     gridtolerance="10"
     guidetolerance="10"
     inkscape:pageopacity="0"
     inkscape:pageshadow="2"
     inkscape:window-width="1359"
     inkscape:window-height="1041"
     id="namedview3066"
     showgrid="false"
     inkscape:zoom="2.5371819"
     inkscape:cx="189.39756"
     inkscape:cy="241.97087"
     inkscape:window-x="2050"
     inkscape:window-y="126"
     inkscape:window-maximized="0"
     inkscape:current-layer="g3046" />
  <defs
     id="defs3006">
    <marker
       id="ArrowEnd"
       viewBox="0 0 10 10"
       refX="0"
       refY="5"
       markerUnits="strokeWidth"
       markerWidth="4"
       markerHeight="3"
       orient="auto">
      <path
         d="M 0 0 L 10 5 L 0 10 z"
         id="path3009" />
    </marker>
    <marker
       id="ArrowStart"
       viewBox="0 0 10 10"
       refX="10"
       refY="5"
       markerUnits="strokeWidth"
       markerWidth="4"
       markerHeight="3"
       orient="auto">
      <path
         d="M 10 0 L 0 5 L 10 10 z"
         id="path3012" />
    </marker>
  </defs>
  <g
     id="g3014" />
  <g
     id="g3016">
    <path
       style="stroke:none; fill:#ffffff"
       d="M 28.152 722.154L 305.856 722.154L 305.856 601.122L 28.152 601.122L 28.152 722.154z"
       id="path3018" />
    <g
       id="g3020">
      <path
         style="stroke:none; fill:#668200"
         d="M 237.312 679.314L 248.4 679.314L 248.4 681.114L 239.472 681.114L 239.472 689.394L 247.968 689.394L 247.968 691.266L 239.472 691.266L 239.472 700.266L 248.976 700.266L 248.976 702.138L 237.312 702.138L 237.312 679.314z"
         id="path3022" />
      <path
         style="stroke:none; fill:#668200"
         d="M 219.24 679.314L 235.08 679.314L 235.08 681.114L 228.24 681.114L 228.24 702.138L 226.08 702.138L 226.08 681.114L 219.24 681.114L 219.24 679.314z"
         id="path3024" />
      <path
         style="stroke:none; fill:#668200"
         d="M 211.392 693.93L 216.432 693.93L 212.112 683.562L 211.392 681.618L 211.392 679.314L 212.76 679.314L 222.336 702.138L 219.744 702.138L 217.008 695.802L 211.392 695.802L 211.392 693.93zM 206.352 693.93L 211.392 693.93L 211.392 695.802L 205.704 695.802L 203.112 702.138L 200.808 702.138L 209.88 679.314L 211.392 679.314L 211.392 681.618L 211.32 681.402L 211.248 681.402L 210.456 683.49L 206.352 693.93z"
         id="path3026" />
      <path
         style="stroke:none; fill:#668200"
         d="M 181.152 679.314L 183.816 679.314L 194.904 697.746L 195.912 699.834L 195.984 699.834L 195.912 697.17L 195.912 679.314L 198 679.314L 198 702.138L 195.336 702.138L 184.392 683.994L 183.168 681.546L 183.024 681.546L 183.168 684.21L 183.168 702.138L 181.152 702.138L 181.152 679.314z"
         id="path3028" />
      <path
         style="stroke:none; fill:#668200"
         d="M 170.064 689.61C 171.072 689.466 171.936 689.106 172.728 688.53C 173.736 687.738 174.312 686.73 174.312 685.434C 174.312 685.218 174.24 684.93 174.24 684.642C 174.24 684.354 174.168 684.066 174.024 683.778C 173.808 683.13 173.376 682.554 172.728 681.978C 172.152 681.474 171.288 681.186 170.064 681.114L 170.064 679.314C 171.792 679.314 173.088 679.674 173.952 680.25C 174.888 680.898 175.608 681.618 175.968 682.41C 176.256 683.058 176.472 683.706 176.544 684.21C 176.544 684.786 176.616 685.218 176.616 685.434C 176.616 686.946 176.112 688.17 175.104 689.106C 174.096 690.042 172.944 690.618 171.648 690.762L 171.648 690.762C 172.296 690.906 172.728 691.05 173.016 691.41C 173.376 691.698 173.592 691.986 173.736 692.418C 173.88 692.562 173.952 692.706 173.952 692.85C 174.024 692.994 174.096 693.138 174.168 693.21L 178.128 702.138L 175.752 702.138L 172.008 693.642C 171.936 693.57 171.936 693.498 171.864 693.498C 171.864 693.426 171.792 693.354 171.792 693.282C 171.504 692.706 171.216 692.274 170.856 691.986C 170.64 691.842 170.424 691.77 170.064 691.698L 170.064 689.61zM 165.888 681.114L 165.888 689.682L 169.056 689.682C 169.416 689.682 169.776 689.682 170.064 689.61L 170.064 691.698C 169.776 691.626 169.272 691.554 168.768 691.554L 165.888 691.554L 165.888 702.138L 163.728 702.138L 163.728 679.314L 169.632 679.314C 169.776 679.314 169.92 679.314 170.064 679.314L 170.064 681.114C 169.992 681.114 169.92 681.114 169.776 681.114L 165.888 681.114z"
         id="path3030" />
      <path
         style="stroke:none; fill:#668200"
         d="M 148.392 679.314L 159.48 679.314L 159.48 681.114L 150.552 681.114L 150.552 689.394L 159.048 689.394L 159.048 691.266L 150.552 691.266L 150.552 700.266L 160.128 700.266L 160.128 702.138L 148.392 702.138L 148.392 679.314z"
         id="path3032" />
      <path
         style="stroke:none; fill:#668200"
         d="M 138.096 689.394C 139.248 689.322 140.184 688.89 140.976 688.242C 141.84 687.45 142.272 686.37 142.272 685.074C 142.272 683.778 141.84 682.77 140.976 682.122C 140.256 681.546 139.32 681.186 138.096 681.186L 138.096 679.314C 140.4 679.314 141.984 679.89 142.92 680.898C 143.928 681.978 144.432 683.202 144.504 684.498C 144.576 684.57 144.576 684.642 144.576 684.786C 144.576 684.858 144.576 684.93 144.576 685.002C 144.576 685.218 144.576 685.434 144.504 685.578C 144.504 685.794 144.504 685.938 144.504 686.154C 144.288 686.946 143.928 687.738 143.352 688.458C 142.776 689.178 141.912 689.754 140.616 690.186L 140.616 690.258C 141.84 690.474 142.92 691.05 143.856 692.058C 144.792 692.994 145.224 694.218 145.224 695.658C 145.224 696.018 145.224 696.45 145.152 696.81C 145.08 697.242 145.008 697.674 144.864 698.106C 144.504 699.114 143.784 700.05 142.704 700.842C 141.696 701.634 140.184 702.066 138.096 702.138L 138.096 700.194C 138.24 700.194 138.384 700.194 138.528 700.194C 138.96 700.194 139.392 700.05 139.824 699.978C 140.616 699.762 141.336 699.33 141.912 698.682C 142.56 698.106 142.92 697.098 142.92 695.73C 142.92 694.578 142.632 693.714 142.056 693.066C 141.552 692.49 140.904 691.986 140.256 691.77C 139.608 691.482 139.032 691.338 138.528 691.338C 138.384 691.266 138.24 691.266 138.096 691.266L 138.096 689.394zM 133.92 681.114L 133.92 689.394L 137.592 689.394C 137.736 689.394 137.952 689.394 138.096 689.394L 138.096 691.266C 137.808 691.266 137.664 691.266 137.592 691.266L 133.92 691.266L 133.92 700.266L 137.376 700.266C 137.592 700.266 137.808 700.266 138.096 700.194L 138.096 702.138C 137.952 702.138 137.808 702.138 137.664 702.138L 131.76 702.138L 131.76 679.314L 137.88 679.314C 137.952 679.314 138.024 679.314 138.096 679.314L 138.096 681.186C 137.952 681.114 137.808 681.114 137.664 681.114L 133.92 681.114z"
         id="path3034" />
      <path
         style="stroke:none; fill:#668200"
         d="M 125.424 679.314L 127.584 679.314L 127.584 702.138L 125.424 702.138L 125.424 679.314z"
         id="path3036" />
      <path
         style="stroke:none; fill:#668200"
         d="M 104.832 679.314L 106.992 679.314L 106.992 689.394L 118.872 689.394L 118.872 679.314L 121.032 679.314L 121.032 702.138L 118.872 702.138L 118.872 691.194L 106.992 691.194L 106.992 702.138L 104.832 702.138L 104.832 679.314z"
         id="path3038" />
      <path
         style="stroke:none; fill:#751121"
         d="M 85.032 679.314L 87.696 679.314L 98.856 697.746L 99.864 699.834L 99.936 699.834L 99.864 697.17L 99.864 675.282L 101.88 675.282L 101.88 702.138L 99.216 702.138L 88.272 683.994L 87.048 681.546L 86.976 681.546L 87.12 684.21L 87.12 702.138L 85.032 702.138L 85.032 679.314z"
         id="path3040" />
    </g>
    <path
       style="stroke:none; fill:#751121"
       d="M 99.864 674.418L 249.48 674.418L 249.48 676.218L 99.864 676.218L 99.864 674.418z"
       id="path3042" />
    <path
       style="stroke:none; fill:#751121"
       d="M 84.6 707.61L 249.48 707.61L 249.48 705.882L 84.6 705.882L 84.6 707.61z"
       id="path3044" />
    <g
       id="g3046">
      <path
         style="stroke:none; fill:#ffffff"
         d="M 155.088 627.978C 155.16 627.474 155.448 626.394 155.808 626.106C 156.528 625.53 157.392 625.314 158.184 625.89C 159.192 626.61 159.624 627.402 159.408 628.626C 159.192 629.778 157.824 630.282 156.744 630.282C 157.68 629.922 158.688 629.562 158.688 628.41C 158.616 627.978 157.824 628.05 157.536 627.69C 157.32 627.33 157.752 626.466 157.464 626.394C 157.248 626.394 157.032 626.322 156.816 626.394C 156.096 626.466 155.448 627.042 155.088 627.978z"
         id="path3048" />
      <path
         style="stroke:none; fill:#ffffff"
         d="M 153.792 635.466C 155.304 634.458 155.952 632.946 156.672 631.65C 156.024 632.658 156.024 633.738 155.376 634.674C 155.088 635.106 154.296 635.322 153.792 635.466z"
         id="path3050" />
      <path
         style="stroke:none; fill:#668200"
         d="M 163.08 616.242C 175.824 616.242 186.264 626.682 186.264 639.498C 186.264 652.314 175.824 662.754 163.08 662.754C 163.08 662.754 163.008 662.754 163.008 662.754L 163.008 664.41C 163.008 664.41 163.08 664.41 163.08 664.41C 176.76 664.41 187.992 653.25 187.992 639.498C 187.992 625.746 176.76 614.514 163.08 614.514C 163.08 614.514 163.008 614.514 163.008 614.514L 163.008 616.242C 163.008 616.242 163.08 616.242 163.08 616.242zM 163.008 662.754C 150.264 662.754 139.824 652.314 139.824 639.498C 139.824 626.682 150.264 616.242 163.008 616.242L 163.008 614.514C 149.328 614.514 138.096 625.746 138.096 639.498C 138.096 653.25 149.328 664.41 163.008 664.41L 163.008 662.754z"
         id="path3052" />
      <path
         style="stroke:none; fill:#ffffff"
         d="M 138.528 630.93C 139.824 629.346 140.472 633.018 140.976 638.994C 143.208 634.026 145.44 629.13 147.672 624.234C 146.016 622.866 143.352 623.226 140.688 622.938C 139.896 625.89 139.32 628.05 138.528 630.93z"
         id="path3054" />
      <path
         style="stroke:none; fill:#751121"
         d="M 182.448 631.578C 180.576 626.25 176.04 621.642 170.352 619.554C 166.824 618.258 161.208 618.618 157.608 619.77C 154.728 620.706 154.584 620.706 151.92 622.29C 150.912 622.866 149.04 622.362 148.32 623.298C 147.6 624.234 149.112 625.602 149.184 626.754C 149.184 627.258 150.984 623.802 150.984 624.234C 150.984 625.314 149.76 627.618 149.544 629.202C 149.112 632.226 150.192 641.082 150.912 643.962C 151.056 644.394 152.424 643.89 152.784 643.746C 153.36 643.674 153.864 641.802 154.728 641.226C 158.472 638.562 160.488 635.106 163.584 634.53C 166.392 634.026 169.776 635.682 171 637.986C 171.648 639.21 172.152 640.578 172.152 641.442C 172.152 642.09 171.936 642.45 171.792 642.09C 170.928 639.642 170.064 637.77 169.272 637.122C 167.4 635.61 166.536 635.178 163.8 635.754C 160.992 636.402 155.736 641.514 154.08 643.818C 153.072 645.186 152.712 647.562 153.432 648.642C 155.664 651.882 157.464 652.746 161.424 653.034C 161.568 653.034 162.72 653.826 162.216 653.826C 157.176 653.826 154.656 652.458 151.272 647.13C 150.912 646.554 150.12 644.394 149.904 643.746C 148.536 640.074 148.896 633.954 148.176 629.058C 147.96 627.618 147.672 625.962 146.952 624.954C 145.8 623.226 138.816 623.586 137.808 625.386C 137.232 625.818 137.016 626.178 137.448 626.466C 141.264 629.346 141.264 632.514 141.408 635.61C 141.552 639.642 141.552 642.594 142.992 646.338C 145.872 654.186 152.352 659.37 159.624 660.378C 168.48 661.674 174.888 658.146 179.712 652.026C 184.032 646.554 184.752 638.058 182.448 631.578z"
         id="path3056" />
      <path
         style="stroke:none; fill:#ffffff"
         d="M 155.808 626.97C 155.88 626.394 156.024 625.026 156.456 624.594C 157.248 623.874 158.328 623.442 159.264 624.018C 160.632 624.81 161.28 625.746 161.208 627.258C 161.064 628.698 159.408 629.418 158.184 629.562C 159.192 629.058 160.488 628.482 160.272 627.042C 160.128 626.538 159.12 626.754 158.76 626.322C 158.472 625.962 158.832 624.81 158.472 624.738C 158.256 624.738 157.968 624.738 157.752 624.81C 156.888 625.026 156.096 625.818 155.808 626.97z"
         id="path3058" />
      <path
         style="stroke:none; fill:#ffffff"
         d="M 154.152 635.826C 154.44 635.394 155.16 634.674 155.664 633.954C 156.384 633.018 156.312 632.442 157.32 631.362C 156.456 632.802 156.816 633.45 156.024 634.314C 155.664 634.674 155.304 635.25 154.152 635.826z"
         id="path3060" />
    </g>
    <path
       style="stroke:none; fill:#751121"
       d="M 84.6 674.418L 97.92 674.418L 97.92 676.218L 84.6 676.218L 84.6 674.418z"
       id="path3062" />
  </g>
  <g
     id="g3064" />
</svg>
