<?xml version="1.0" encoding="UTF-8" standalone="no"?>
<!-- Created with sK1/UniConvertor (http://sk1project.org/) -->

<svg
   xmlns:dc="http://purl.org/dc/elements/1.1/"
   xmlns:cc="http://creativecommons.org/ns#"
   xmlns:rdf="http://www.w3.org/1999/02/22-rdf-syntax-ns#"
   xmlns:svg="http://www.w3.org/2000/svg"
   xmlns="http://www.w3.org/2000/svg"
   xmlns:sodipodi="http://sodipodi.sourceforge.net/DTD/sodipodi-0.dtd"
   xmlns:inkscape="http://www.inkscape.org/namespaces/inkscape"
   width="347.12997"
   height="151.28999"
   viewBox="0 0 277.70399 121.03199"
   id="svg3004"
   version="1.1"
   inkscape:version="0.48.3.1 r9886"
   sodipodi:docname="NHibernate-logo.svg"
   style="fill-rule:evenodd">
  <metadata
     id="metadata3068">
    <rdf:RDF>
      <cc:Work
         rdf:about="">
        <dc:format>image/svg+xml</dc:format>
        <dc:type
           rdf:resource="http://purl.org/dc/dcmitype/StillImage" />
        <dc:title />
      </cc:Work>
    </rdf:RDF>
  </metadata>
  <sodipodi:namedview
     pagecolor="#ffffff"
     bordercolor="#666666"
     borderopacity="1"
     objecttolerance="10"
     gridtolerance="10"
     guidetolerance="10"
     inkscape:pageopacity="0"
     inkscape:pageshadow="2"
     inkscape:window-width="1359"
     inkscape:window-height="1041"
     id="namedview3066"
     showgrid="false"
     inkscape:zoom="1"
     inkscape:cx="161.37751"
     inkscape:cy="82.923056"
     inkscape:window-x="111"
     inkscape:window-y="73"
     inkscape:window-maximized="0"
     inkscape:current-layer="g3016"
     fit-margin-top="0"
     fit-margin-left="0"
     fit-margin-right="0"
     fit-margin-bottom="0" />
  <defs
     id="defs3006">
    <marker
       id="ArrowEnd"
       viewBox="0 0 10 10"
       refX="0"
       refY="5"
       markerUnits="strokeWidth"
       markerWidth="4"
       markerHeight="3"
       orient="auto">
      <path
         d="M 0,0 10,5 0,10 z"
         id="path3009"
         inkscape:connector-curvature="0" />
    </marker>
    <marker
       id="ArrowStart"
       viewBox="0 0 10 10"
       refX="10"
       refY="5"
       markerUnits="strokeWidth"
       markerWidth="4"
       markerHeight="3"
       orient="auto">
      <path
         d="M 10,0 0,5 10,10 z"
         id="path3012"
         inkscape:connector-curvature="0" />
    </marker>
  </defs>
  <g
     id="g3014"
     transform="translate(-28.152,-601.12204)" />
  <g
     id="g3016"
     transform="translate(-28.152,-601.12204)">
    <path
       style="fill:#ffffff;stroke:none"
       d="m 28.152,722.154 277.704,0 0,-121.032 -277.704,0 0,121.032 z"
       id="path3018"
       inkscape:connector-curvature="0" />
    <g
       id="g3020">
      <path
         style="fill:#87802a;fill-opacity:1;stroke:none"
         d="m 237.312,679.314 11.088,0 0,1.8 -8.928,0 0,8.28 8.496,0 0,1.872 -8.496,0 0,9 9.504,0 0,1.872 -11.664,0 0,-22.824 z"
         id="path3022"
         inkscape:connector-curvature="0" />
      <path
         style="fill:#87802a;fill-opacity:1;stroke:none"
         d="m 219.24,679.314 15.84,0 0,1.8 -6.84,0 0,21.024 -2.16,0 0,-21.024 -6.84,0 0,-1.8 z"
         id="path3024"
         inkscape:connector-curvature="0" />
      <path
         style="fill:#87802a;fill-opacity:1;stroke:none"
         d="m 211.392,693.93 5.04,0 -4.32,-10.368 -0.72,-1.944 0,-2.304 1.368,0 9.576,22.824 -2.592,0 -2.736,-6.336 -5.616,0 0,-1.872 z m -5.04,0 5.04,0 0,1.872 -5.688,0 -2.592,6.336 -2.304,0 9.072,-22.824 1.512,0 0,2.304 -0.072,-0.216 -0.072,0 -0.792,2.088 -4.104,10.44 z"
         id="path3026"
         inkscape:connector-curvature="0" />
      <path
         style="fill:#87802a;fill-opacity:1;stroke:none"
         d="m 181.152,679.314 2.664,0 11.088,18.432 1.008,2.088 0.072,0 -0.072,-2.664 0,-17.856 2.088,0 0,22.824 -2.664,0 -10.944,-18.144 -1.224,-2.448 -0.144,0 0.144,2.664 0,17.928 -2.016,0 0,-22.824 z"
         id="path3028"
         inkscape:connector-curvature="0" />
      <path
         style="fill:#87802a;fill-opacity:1;stroke:none"
         d="m 170.064,689.61 c 1.008,-0.144 1.872,-0.504 2.664,-1.08 1.008,-0.792 1.584,-1.8 1.584,-3.096 0,-0.216 -0.072,-0.504 -0.072,-0.792 0,-0.288 -0.072,-0.576 -0.216,-0.864 -0.216,-0.648 -0.648,-1.224 -1.296,-1.8 -0.576,-0.504 -1.44,-0.792 -2.664,-0.864 l 0,-1.8 c 1.728,0 3.024,0.36 3.888,0.936 0.936,0.648 1.656,1.368 2.016,2.16 0.288,0.648 0.504,1.296 0.576,1.8 0,0.576 0.072,1.008 0.072,1.224 0,1.512 -0.504,2.736 -1.512,3.672 -1.008,0.936 -2.16,1.512 -3.456,1.656 l 0,0 c 0.648,0.144 1.08,0.288 1.368,0.648 0.36,0.288 0.576,0.576 0.72,1.008 0.144,0.144 0.216,0.288 0.216,0.432 0.072,0.144 0.144,0.288 0.216,0.36 l 3.96,8.928 -2.376,0 -3.744,-8.496 c -0.072,-0.072 -0.072,-0.144 -0.144,-0.144 0,-0.072 -0.072,-0.144 -0.072,-0.216 -0.288,-0.576 -0.576,-1.008 -0.936,-1.296 -0.216,-0.144 -0.432,-0.216 -0.792,-0.288 l 0,-2.088 z m -4.176,-8.496 0,8.568 3.168,0 c 0.36,0 0.72,0 1.008,-0.072 l 0,2.088 c -0.288,-0.072 -0.792,-0.144 -1.296,-0.144 l -2.88,0 0,10.584 -2.16,0 0,-22.824 5.904,0 c 0.144,0 0.288,0 0.432,0 l 0,1.8 c -0.072,0 -0.144,0 -0.288,0 l -3.888,0 z"
         id="path3030"
         inkscape:connector-curvature="0" />
      <path
         style="fill:#87802a;fill-opacity:1;stroke:none"
         d="m 148.392,679.314 11.088,0 0,1.8 -8.928,0 0,8.28 8.496,0 0,1.872 -8.496,0 0,9 9.576,0 0,1.872 -11.736,0 0,-22.824 z"
         id="path3032"
         inkscape:connector-curvature="0" />
      <path
         style="fill:#87802a;fill-opacity:1;stroke:none"
         d="m 138.096,689.394 c 1.152,-0.072 2.088,-0.504 2.88,-1.152 0.864,-0.792 1.296,-1.872 1.296,-3.168 0,-1.296 -0.432,-2.304 -1.296,-2.952 -0.72,-0.576 -1.656,-0.936 -2.88,-0.936 l 0,-1.872 c 2.304,0 3.888,0.576 4.824,1.584 1.008,1.08 1.512,2.304 1.584,3.6 0.072,0.072 0.072,0.144 0.072,0.288 0,0.072 0,0.144 0,0.216 0,0.216 0,0.432 -0.072,0.576 0,0.216 0,0.36 0,0.576 -0.216,0.792 -0.576,1.584 -1.152,2.304 -0.576,0.72 -1.44,1.296 -2.736,1.728 l 0,0.072 c 1.224,0.216 2.304,0.792 3.24,1.8 0.936,0.936 1.368,2.16 1.368,3.6 0,0.36 0,0.792 -0.072,1.152 -0.072,0.432 -0.144,0.864 -0.288,1.296 -0.36,1.008 -1.08,1.944 -2.16,2.736 -1.008,0.792 -2.52,1.224 -4.608,1.296 l 0,-1.944 c 0.144,0 0.288,0 0.432,0 0.432,0 0.864,-0.144 1.296,-0.216 0.792,-0.216 1.512,-0.648 2.088,-1.296 0.648,-0.576 1.008,-1.584 1.008,-2.952 0,-1.152 -0.288,-2.016 -0.864,-2.664 -0.504,-0.576 -1.152,-1.08 -1.8,-1.296 -0.648,-0.288 -1.224,-0.432 -1.728,-0.432 -0.144,-0.072 -0.288,-0.072 -0.432,-0.072 l 0,-1.872 z m -4.176,-8.28 0,8.28 3.672,0 c 0.144,0 0.36,0 0.504,0 l 0,1.872 c -0.288,0 -0.432,0 -0.504,0 l -3.672,0 0,9 3.456,0 c 0.216,0 0.432,0 0.72,-0.072 l 0,1.944 c -0.144,0 -0.288,0 -0.432,0 l -5.904,0 0,-22.824 6.12,0 c 0.072,0 0.144,0 0.216,0 l 0,1.872 c -0.144,-0.072 -0.288,-0.072 -0.432,-0.072 l -3.744,0 z"
         id="path3034"
         inkscape:connector-curvature="0" />
      <path
         style="fill:#87802a;fill-opacity:1;stroke:none"
         d="m 125.424,679.314 2.16,0 0,22.824 -2.16,0 0,-22.824 z"
         id="path3036"
         inkscape:connector-curvature="0" />
      <path
         style="fill:#87802a;fill-opacity:1;stroke:none"
         d="m 104.832,679.314 2.16,0 0,10.08 11.88,0 0,-10.08 2.16,0 0,22.824 -2.16,0 0,-10.944 -11.88,0 0,10.944 -2.16,0 0,-22.824 z"
         id="path3038"
         inkscape:connector-curvature="0" />
      <path
         style="fill:#903a36;fill-opacity:1;stroke:none"
         d="m 85.032,679.314 2.664,0 11.16,18.432 1.008,2.088 0.072,0 -0.072,-2.664 0,-21.888 2.016,0 0,26.856 -2.664,0 -10.944,-18.144 -1.224,-2.448 -0.072,0 0.144,2.664 0,17.928 -2.088,0 0,-22.824 z"
         id="path3040"
         inkscape:connector-curvature="0" />
    </g>
    <path
       style="fill:#903a36;fill-opacity:1;stroke:none"
       d="m 99.864,674.418 149.616,0 0,1.8 -149.616,0 0,-1.8 z"
       id="path3042"
       inkscape:connector-curvature="0" />
    <path
       style="fill:#903a36;fill-opacity:1;stroke:none"
       d="m 84.6,707.61 164.88,0 0,-1.728 -164.88,0 0,1.728 z"
       id="path3044"
       inkscape:connector-curvature="0" />
    <g
       id="g3046">
      <path
         style="fill:#ffffff;stroke:none"
         d="m 155.088,627.978 c 0.072,-0.504 0.36,-1.584 0.72,-1.872 0.72,-0.576 1.584,-0.792 2.376,-0.216 1.008,0.72 1.44,1.512 1.224,2.736 -0.216,1.152 -1.584,1.656 -2.664,1.656 0.936,-0.36 1.944,-0.72 1.944,-1.872 -0.072,-0.432 -0.864,-0.36 -1.152,-0.72 -0.216,-0.36 0.216,-1.224 -0.072,-1.296 -0.216,0 -0.432,-0.072 -0.648,0 -0.72,0.072 -1.368,0.648 -1.728,1.584 z"
         id="path3048"
         inkscape:connector-curvature="0" />
      <path
         style="fill:#ffffff;stroke:none"
         d="m 153.792,635.466 c 1.512,-1.008 2.16,-2.52 2.88,-3.816 -0.648,1.008 -0.648,2.088 -1.296,3.024 -0.288,0.432 -1.08,0.648 -1.584,0.792 z"
         id="path3050"
         inkscape:connector-curvature="0" />
      <path
         style="fill:#87802a;fill-opacity:1;stroke:none"
         d="M 168.5625 16.75 C 159.2266 16.75 150.81863 20.93359 145.09375 27.53125 C 145.98268 27.600665 146.83213 27.735302 147.59375 27.96875 C 147.60315 27.971632 147.61562 27.965832 147.625 27.96875 C 152.91428 22.401607 160.34031 18.90625 168.5625 18.90625 L 168.65625 18.90625 C 184.58625 18.90625 197.625 31.948751 197.625 47.96875 C 197.625 63.988749 184.58625 77.03125 168.65625 77.03125 L 168.5625 77.03125 C 152.6325 77.03125 139.59375 63.988749 139.59375 47.96875 C 139.59375 45.687078 139.87494 43.475805 140.375 41.34375 C 140.08445 39.42437 139.73122 38.00419 139.3125 37.3125 C 138.09865 40.639382 137.4375 44.232409 137.4375 47.96875 C 137.4375 65.158749 151.4625 79.125 168.5625 79.125 L 168.65625 79.125 C 185.75625 79.125 199.8125 65.158749 199.8125 47.96875 C 199.8125 30.778751 185.75625 16.75 168.65625 16.75 L 168.5625 16.75 z "
         transform="matrix(0.80000003,0,0,0.80000003,28.152,601.12204)"
         id="path3052" />
      <path
         style="fill:#903a36;fill-opacity:1;stroke:none"
         d="m 182.448,631.578 c -1.872,-5.328 -6.408,-9.936 -12.096,-12.024 -3.528,-1.296 -9.144,-0.936 -12.744,0.216 -2.88,0.936 -3.024,0.936 -5.688,2.52 -1.008,0.576 -2.88,0.072 -3.6,1.008 -0.72,0.936 0.792,2.304 0.864,3.456 0,0.504 1.8,-2.952 1.8,-2.52 0,1.08 -1.224,3.384 -1.44,4.968 -0.432,3.024 0.648,11.88 1.368,14.76 0.144,0.432 1.512,-0.072 1.872,-0.216 0.576,-0.072 1.08,-1.944 1.944,-2.52 3.744,-2.664 5.76,-6.12 8.856,-6.696 2.808,-0.504 6.192,1.152 7.416,3.456 0.648,1.224 1.152,2.592 1.152,3.456 0,0.648 -0.216,1.008 -0.36,0.648 -0.864,-2.448 -1.728,-4.32 -2.52,-4.968 -1.872,-1.512 -2.736,-1.944 -5.472,-1.368 -2.808,0.648 -8.064,5.76 -9.72,8.064 -1.008,1.368 -1.368,3.744 -0.648,4.824 2.232,3.24 4.032,4.104 7.992,4.392 0.144,0 1.296,0.792 0.792,0.792 -5.04,0 -7.56,-1.368 -10.944,-6.696 -0.36,-0.576 -1.152,-2.736 -1.368,-3.384 -1.368,-3.672 -1.008,-9.792 -1.728,-14.688 -0.216,-1.44 -0.504,-3.096 -1.224,-4.104 -1.152,-1.728 -8.136,-1.368 -9.144,0.432 -0.576,0.432 -0.792,0.792 -0.36,1.08 3.816,2.88 3.816,6.048 3.96,9.144 0.144,4.032 0.144,6.984 1.584,10.728 2.88,7.848 9.36,13.032 16.632,14.04 8.856,1.296 15.264,-2.232 20.088,-8.352 4.32,-5.472 5.04,-13.968 2.736,-20.448 z"
         id="path3056"
         inkscape:connector-curvature="0" />
      <path
         style="fill:#ffffff;stroke:none"
         d="m 155.808,626.97 c 0.072,-0.576 0.216,-1.944 0.648,-2.376 0.792,-0.72 1.872,-1.152 2.808,-0.576 1.368,0.792 2.016,1.728 1.944,3.24 -0.144,1.44 -1.8,2.16 -3.024,2.304 1.008,-0.504 2.304,-1.08 2.088,-2.52 -0.144,-0.504 -1.152,-0.288 -1.512,-0.72 -0.288,-0.36 0.072,-1.512 -0.288,-1.584 -0.216,0 -0.504,0 -0.72,0.072 -0.864,0.216 -1.656,1.008 -1.944,2.16 z"
         id="path3058"
         inkscape:connector-curvature="0" />
      <path
         style="fill:#ffffff;stroke:none"
         d="m 154.152,635.826 c 0.288,-0.432 1.008,-1.152 1.512,-1.872 0.72,-0.936 0.648,-1.512 1.656,-2.592 -0.864,1.44 -0.504,2.088 -1.296,2.952 -0.36,0.36 -0.72,0.936 -1.872,1.512 z"
         id="path3060"
         inkscape:connector-curvature="0" />
    </g>
    <path
       style="fill:#903a36;fill-opacity:1;stroke:none"
       d="m 84.6,674.418 13.32,0 0,1.8 -13.32,0 0,-1.8 z"
       id="path3062"
       inkscape:connector-curvature="0" />
  </g>
  <g
     id="g3064"
     transform="translate(-28.152,-601.12204)" />
</svg>
